# AST/ASF file generated using VICON BodyLanguage
# -----------------------------------------------
:version 1.10
:name VICON
:units
  mass 1.0
  length 0.45
  angle deg
:documentation
   .ast/.asf automatically generated from VICON data using
   VICON BodyBuilder and BodyLanguage model FoxedUp or BRILLIANT.MOD
:root
   order TX TY TZ RX RY RZ
   axis XYZ
   position 0 0 0  
   orientation 0 0 0 
:bonedata
  begin
     id 1 
     name lhipjoint
     direction 0.541323 -0.757556 0.364798 
     length 2.47576 
     axis 0 0 0  XYZ
  end
  begin
     id 2 
     name lfemur
     direction 0.34202 -0.939693 0  
     length 7.46493  
     axis 0 0 20  XYZ
    dof rx ry rz
    limits (-160.0 20.0)
           (-70.0 70.0)
           (-60.0 70.0)
  end
  begin
     id 3 
     name ltibia
     direction 0.34202 -0.939693 0   
     length 7.73805   
     axis 0 0 20   XYZ
    dof rx
    limits (-10.0 170.0)
  end
  begin
     id 4 
     name lfoot
     direction 0.107174 -0.294458 0.949636   
     length 2.25864   
     axis -90 7.62852e-016 20   XYZ
    dof rx rz
    limits (-45.0 90.0)
           (-70.0 20.0)
  end
  begin
     id 5 
     name ltoes
     direction 1.53606e-011 -4.21934e-011 1   
     length 1.12451   
     axis -90 7.62852e-016 20   XYZ
    dof rx
    limits (-90.0 20.0)
  end
  begin
     id 6 
     name rhipjoint
     direction -0.524745 -0.766967 0.36933   
     length 2.44538  
     axis 0 0 0  XYZ 
  end
  begin
     id 7 
     name rfemur
     direction -0.34202 -0.939693 0   
     length 7.61604   
     axis 0 0 -20   XYZ
    dof rx ry rz
    limits (-160.0 20.0)
           (-70.0 70.0)
           (-70.0 60.0)
  end
  begin
     id 8 
     name rtibia
     direction -0.34202 -0.939693 0   
     length 7.61056   
     axis 0 0 -20   XYZ
    dof rx
    limits (-10.0 170.0)
 end
 begin
     id 9 
     name rfoot
     direction -0.12616 -0.346623 0.929482   
     length 2.46372  
     axis -90 -7.62852e-016 -20   XYZ
    dof rx rz
    limits (-45.0 90.0)
           (-20.0 70.0)
  end
  begin
     id 10 
     name rtoes
     direction -1.53531e-011 -4.22004e-011 1   
     length 1.21611   
     axis -90 -7.62852e-016 -20   XYZ
    dof rx
    limits (-90.0 20.0)
  end
  begin
     id 11 
     name lowerback
     direction -0.000778023 0.997293 -0.0735223   
     length 2.06139   
     axis 0 0 0   XYZ
    dof rx ry rz
    limits (-20.0 45.0)
           (-30.0 30.0)
           (-30.0 30.0)
  end
  begin
     id 12 
     name upperback
     direction 0.0222598 0.999722 -0.0078355   
     length 2.06383   
     axis 0 0 0   XYZ
    dof rx ry rz
    limits (-20.0 45.0)
           (-30.0 30.0)
           (-30.0 30.0)
  end
  begin
     id 13 
     name thorax
     direction 0.0219654 0.999405 0.0265994   
     length 2.07163   
     axis 0 0 0   XYZ
    dof rx ry rz
    limits (-20.0 45.0)
           (-30.0 30.0)
           (-30.0 30.0)
  end
  begin
     id 14 
     name lowerneck
     direction 0.0213282 0.988147 0.15202   
     length 1.75969   
     axis 0 0 0   XYZ
    dof rx ry rz
    limits (-20.0 45.0)
           (-30.0 30.0)
           (-30.0 30.0)
  end
  begin
     id 15 
     name upperneck
     direction -0.0546456 0.982624 -0.177379   
     length 1.79244   
     axis 0 0 0   XYZ
    dof rx ry rz
    limits (-20.0 45.0)
           (-30.0 30.0)
           (-30.0 30.0)
  end
  begin
     id 16
     name head
     direction -0.0199987 0.996855 -0.076686  
     length 1.80555  
     axis 0 0 0   XYZ
    dof rx ry rz
    limits (-20.0 45.0)
           (-30.0 30.0)
           (-30.0 30.0)
  end
  begin
     id 17 
     name lclavicle
     direction 0.929565 0.363219 -0.063096  
     length 3.55722  
     axis 0 0 0   XYZ
    dof ry rz
    limits (-20.0 10.0)
           (0.0 20.0)
  end
  begin
     id 18 
     name lhumerus
     direction 1 -4.48993e-011 -2.36203e-027   
     length 4.92785   
     axis 180 -30 -90   XYZ
    dof rx ry rz
    limits (-60.0 90.0)
           (-90.0 90.0)
           (-90.0 90.0)
  end
  begin
     id 19
     name lradius
     direction 1 -4.48947e-011 2.02997e-027   
     length 3.44052   
     axis 180 -30 -90   XYZ
    dof rx
    limits (-10.0 170.0)
  end
  begin
     id 20
     name lwrist
     direction 1 -4.48962e-011 1.45991e-027   
     length 1.72026   
     axis 1.49639e-024 90 90   XYZ
    dof ry
    limits (-180.0 0.0)
 end
  begin
     id 21 
     name lhand
     direction 1 -4.48984e-011 2.91906e-027   
     length 0.654326   
     axis -1.863e-015 90 90   XYZ
    dof rx rz
    limits (-90.0 90.0)
           (-45.0 45.0)
  end
  begin
     id 22 
     name lfingers
     direction 1 -4.48961e-011 5.83968e-027   
     length 0.527534   
     axis -3.72598e-015 90 90   XYZ
    dof rx
    limits (0.0 90.0)
  end
  begin
     id 23
     name lthumb
     direction 0.707107 -6.34963e-011 0.707107   
     length 0.757437   
     axis -90 45 -6.68868e-015   XYZ
    dof rx rz
    limits (-45.0 45.0)
           (-45.0 45.0)
  end
  begin
     id 24 
     name rclavicle
     direction -0.902944 0.422599 -0.0781198   
     length 3.54432  
     axis 0 0 0   XYZ 
    dof ry rz
    limits (-10.0 20.0)
           (-20.0 0.0)
  end
  begin
     id 25 
     name rhumerus
     direction -1 -4.48953e-011 -4.75835e-028  
     length 5.09181   
     axis 180 30 90   XYZ
    dof rx ry rz
    limits (-90.0 60.0)
           (-90.0 90.0)
           (-90.0 90.0)
  end
  begin
     id 26 
     name rradius
     direction -1 -4.48986e-011 -3.25889e-027   
     length 3.49865   
     axis 180 30 90   XYZ
    dof rx
    limits (-10.0 170.0)
  end
  begin
     id 27 
     name rwrist
     direction -1 -4.48963e-011 1.45989e-027   
     length 1.74933   
     axis 1.49639e-024 -90 -90   XYZ
    dof ry
    limits (-180.0 0.0)
  end
  begin
     id 28
     name rhand
     direction -1 -4.49003e-011 2.91844e-027   
     length 0.66641   
     axis -1.863e-015 -90 -90   XYZ
    dof rx rz
    limits (-90.0 90.0)
           (-45.0 45.0)
  end
  begin
     id 29
     name rfingers
     direction -1 -4.48973e-011 5.83886e-027   
     length 0.537277   
     axis -3.72598e-015 -90 -90   XYZ
    dof rx
    limits (0.0 90.0)
  end
  begin
     id 30
     name rthumb
     direction -0.707107 -6.34976e-011 0.707107   
     length 0.771425   
     axis -90 -45 6.68868e-015   XYZ
    dof rx rz
    limits (-45.0 45.0)
           (-45.0 45.0)
  end
:hierarchy
  begin
    root lhipjoint rhipjoint lowerback
    lhipjoint lfemur
    lfemur ltibia
    ltibia lfoot
    lfoot ltoes
    rhipjoint rfemur
    rfemur rtibia
    rtibia rfoot
    rfoot rtoes
    lowerback upperback
    upperback thorax
    thorax lowerneck lclavicle rclavicle
    lowerneck upperneck
    upperneck head
    lclavicle lhumerus
    lhumerus lradius
    lradius lwrist
    lwrist lhand lthumb
    lhand lfingers
    rclavicle rhumerus
    rhumerus rradius
    rradius rwrist
    rwrist rhand rthumb
    rhand rfingers
  end

#!OML:ASF H:\LiuWeirdWalks\Patient Classification 1\Patient 1\Session 1\male.ASF
:FULLY-SPECIFIED
:DEGREES
36
root 0.551286 17.9762 -25.8955 2.11153 38.8094 -0.0275893
lowerback 3.77758 6.9176 1.24394
upperback -0.169083 9.33086 1.922
thorax -2.39559 4.65269 0.739733
lowerneck 6.90902 21.1823 11.7463
upperneck -4.36049 29.0982 -16.3995
head 1.70327 14.8604 -5.68254
rclavicle 4.06018e-014 -1.43125e-014
rhumerus -40.3274 -17.1841 -65.9741
rradius 30.8206
rwrist -11.9819
rhand -21.3927 2.10596
rfingers 7.12502
rthumb 4.99516 -27.8152
lclavicle 4.06018e-014 -1.43125e-014
lhumerus -27.8925 2.80666 86.9226
lradius 23.8425
lwrist 0.289104
lhand -10.7299 2.64949
lfingers 7.12502
lthumb 15.2806 32.065
rfemur -0.599129 -14.7854 18.8611
rtibia 25.03
rfoot -18.1518 -41.0883
rtoes 2.50868
lfemur -12.8515 -11.946 -15.2174
ltibia 25.4562
lfoot -12.3546 -5.91055
ltoes -9.39027
37
root 0.550438 17.9758 -25.8941 2.0982 38.7983 -0.0429665
lowerback 3.78464 6.93928 1.2502
upperback -0.171033 9.35958 1.90096
thorax -2.39726 4.66668 0.712624
lowerneck 6.86297 21.1763 11.7522
upperneck -4.34818 29.0862 -16.3681
head 1.70814 14.8513 -5.67055
rclavicle 2.86498e-014 9.54166e-015
rhumerus -40.3417 -17.2837 -66.02
rradius 30.799
rwrist -12.0385
rhand -21.1165 1.93226
rfingers 7.12502
rthumb 5.2619 -27.9824
lclavicle 2.86498e-014 9.54166e-015
lhumerus -27.8564 2.72119 86.9206
lradius 23.8341
lwrist 0.279794
lhand -10.7229 2.62864
lfingers 7.12502
lthumb 15.2874 32.0437
rfemur -0.593147 -14.779 18.8786
rtibia 25.0247
rfoot -18.133 -41.0907
rtoes 2.49402
lfemur -12.8519 -11.9518 -15.2013
ltibia 25.4751
lfoot -12.3693 -5.88689
ltoes -9.40807
38
root 0.548871 17.9755 -25.8916 2.03468 38.7766 -0.119525
lowerback 3.80291 6.96768 1.29391
upperback -0.173912 9.39955 1.89037
thorax -2.40198 4.68585 0.674067
lowerneck 6.82216 21.1647 11.7878
upperneck -4.32441 29.0709 -16.3469
head 1.72087 14.8403 -5.66347
rclavicle -1.2752e-013 -1.74931e-014
rhumerus -40.3704 -17.3991 -66.0681
rradius 30.7794
rwrist -12.0745
rhand -20.8484 1.79085
rfingers 7.12502
rthumb 5.52073 -28.1172
lclavicle -1.2752e-013 -1.74931e-014
lhumerus -27.8189 2.62587 86.9123
lradius 23.8251
lwrist 0.26906
lhand -10.7183 2.61254
lfingers 7.12502
lthumb 15.2918 32.0272
rfemur -0.566767 -14.7228 18.9609
rtibia 25.0009
rfoot -18.1447 -41.1257
rtoes 2.50316
lfemur -12.8419 -11.9474 -15.1291
ltibia 25.5024
lfoot -12.3918 -5.86009
ltoes -9.42312
39
root 0.546988 17.9752 -25.8887 1.95189 38.7525 -0.217575
lowerback 3.82184 6.98734 1.34295
upperback -0.170891 9.42846 1.89446
thorax -2.40248 4.69964 0.648441
lowerneck 6.7886 21.1626 11.8088
upperneck -4.30859 29.0674 -16.3339
head 1.731 14.8361 -5.65724
rclavicle 3.77691e-014 6.36111e-015
rhumerus -40.3689 -17.4854 -66.1238
rradius 30.7454
rwrist -12.0759
rhand -20.6036 1.6749
rfingers 7.12502
rthumb 5.75711 -28.2269
lclavicle 3.77691e-014 6.36111e-015
lhumerus -27.7794 2.57818 86.8985
lradius 23.8168
lwrist 0.241888
lhand -10.7025 2.58364
lfingers 7.12502
lthumb 15.3071 31.9972
rfemur -0.527453 -14.6445 19.067
rtibia 24.9619
rfoot -18.1684 -41.1779
rtoes 2.52259
lfemur -12.8288 -11.9359 -15.0365
ltibia 25.5363
lfoot -12.4185 -5.83822
ltoes -9.4351
40
root 0.545013 17.9749 -25.8858 1.86075 38.7278 -0.324611
lowerback 3.84333 7.00802 1.39819
upperback -0.168809 9.45915 1.89955
thorax -2.40451 4.71422 0.620027
lowerneck 6.77276 21.1575 11.8465
upperneck -4.30593 29.0619 -16.3327
head 1.73839 14.8319 -5.65835
rclavicle 1.06499e-013 7.15625e-015
rhumerus -40.3597 -17.5667 -66.1831
rradius 30.6904
rwrist -12.0008
rhand -20.4275 1.61236
rfingers 7.12502
rthumb 5.9271 -28.2847
lclavicle 1.06499e-013 7.15625e-015
lhumerus -27.7439 2.52591 86.8841
lradius 23.8145
lwrist 0.219067
lhand -10.6781 2.54722
lfingers 7.12502
lthumb 15.3306 31.9589
rfemur -0.47903 -14.5567 19.1829
rtibia 24.909
rfoot -18.1895 -41.2378
rtoes 2.5507
lfemur -12.8143 -11.929 -14.9356
ltibia 25.5775
lfoot -12.4488 -5.80995
ltoes -9.44445
41
root 0.543432 17.9747 -25.8834 1.79054 38.7103 -0.407575
lowerback 3.86203 7.03306 1.44475
upperback -0.172437 9.49497 1.89171
thorax -2.41005 4.7313 0.582878
lowerneck 6.77714 21.1446 11.9049
upperneck -4.31286 29.048 -16.3369
head 1.74248 14.8242 -5.66645
rclavicle -3.21783e-014 -2.38542e-015
rhumerus -40.3678 -17.6668 -66.2359
rradius 30.6402
rwrist -11.8935
rhand -20.3129 1.58926
rfingers 7.12502
rthumb 6.03772 -28.3047
lclavicle -3.21783e-014 -2.38542e-015
lhumerus -27.7152 2.4411 86.8718
lradius 23.82
lwrist 0.207563
lhand -10.6458 2.50266
lfingers 7.12502
lthumb 15.3616 31.912
rfemur -0.435857 -14.4909 19.2728
rtibia 24.8555
rfoot -18.1976 -41.2846
rtoes 2.57261
lfemur -12.8053 -11.9306 -14.8565
ltibia 25.6179
lfoot -12.4768 -5.78143
ltoes -9.44921
42
root 0.541653 17.9746 -25.8809 1.70685 38.6876 -0.510537
lowerback 3.88487 7.0674 1.50567
upperback -0.180844 9.54407 1.88285
thorax -2.42031 4.75473 0.535469
lowerneck 6.79387 21.1207 11.9845
upperneck -4.32534 29.0212 -16.3461
head 1.74507 14.8106 -5.68079
rclavicle 2.67614e-014 -1.19271e-014
rhumerus -40.3995 -17.7828 -66.2876
rradius 30.6024
rwrist -11.7895
rhand -20.2391 1.58606
rfingers 7.12502
rthumb 6.10898 -28.3059
lclavicle 2.67614e-014 -1.19271e-014
lhumerus -27.6908 2.3243 86.8627
lradius 23.8318
lwrist 0.20913
lhand -10.6069 2.45992
lfingers 7.12502
lthumb 15.3992 31.8664
rfemur -0.397444 -14.4099 19.3837
rtibia 24.8122
rfoot -18.2274 -41.338
rtoes 2.6077
lfemur -12.7934 -11.9258 -14.7589
ltibia 25.6523
lfoot -12.5007 -5.75545
ltoes -9.45198
43
root 0.540483 17.9745 -25.8792 1.65491 38.675 -0.576713
lowerback 3.90047 7.10042 1.54811
upperback -0.190339 9.59009 1.86416
thorax -2.42885 4.77679 0.489002
lowerneck 6.80893 21.095 12.0519
upperneck -4.33763 28.991 -16.3499
head 1.74495 14.7951 -5.69314
rclavicle -3.80176e-015 -1.11319e-014
rhumerus -40.4305 -17.9021 -66.338
rradius 30.5747
rwrist -11.7004
rhand -20.1446 1.57692
rfingers 7.12502
rthumb 6.20019 -28.3123
lclavicle -3.80176e-015 -1.11319e-014
lhumerus -27.666 2.20486 86.8578
lradius 23.8487
lwrist 0.218628
lhand -10.5777 2.43026
lfingers 7.12502
lthumb 15.4273 31.8346
rfemur -0.373723 -14.364 19.4547
rtibia 24.7822
rfoot -18.2327 -41.3713
rtoes 2.6279
lfemur -12.7889 -11.931 -14.6957
ltibia 25.6775
lfoot -12.5161 -5.73138
ltoes -9.45247
44
root 0.540217 17.9744 -25.8785 1.65838 38.6791 -0.576694
lowerback 3.93434 7.19949 1.60151
upperback -0.244963 9.72331 1.74971
thorax -2.47564 4.84062 0.32993
lowerneck 6.81982 20.9859 12.3365
upperneck -4.27763 28.8705 -16.3508
head 1.78417 14.7296 -5.72727
rclavicle 8.13526e-014 -7.95139e-015
rhumerus -40.6443 -18.2564 -66.3533
rradius 30.6019
rwrist -11.664
rhand -20.0421 1.54533
rfingers 7.12502
rthumb 6.29919 -28.341
lclavicle 8.13526e-014 -7.95139e-015
lhumerus -27.6498 1.78019 86.8499
lradius 23.8656
lwrist 0.289146
lhand -10.5598 2.44238
lfingers 7.12502
lthumb 15.4445 31.8454
rfemur -0.367323 -14.3754 19.4557
rtibia 24.7654
rfoot -18.2202 -41.3655
rtoes 2.63471
lfemur -12.797 -11.9434 -14.6934
ltibia 25.6933
lfoot -12.5257 -5.71529
ltoes -9.45119
45
root 0.539941 17.9743 -25.8777 1.662 38.6827 -0.578599
lowerback 3.97205 7.30698 1.66408
upperback -0.300384 9.86793 1.62399
thorax -2.52106 4.90981 0.153624
lowerneck 6.80099 20.8697 12.6346
upperneck -4.20198 28.7396 -16.3437
head 1.83145 14.6572 -5.75765
rclavicle 8.13526e-014 7.95139e-016
rhumerus -40.8706 -18.6416 -66.3739
rradius 30.6504
rwrist -11.6528
rhand -19.946 1.49642
rfingers 7.12502
rthumb 6.39194 -28.3871
lclavicle 8.13526e-014 7.95139e-016
lhumerus -27.6224 1.31713 86.8418
lradius 23.8871
lwrist 0.380293
lhand -10.5579 2.48233
lfingers 7.12502
lthumb 15.4463 31.8852
rfemur -0.369898 -14.3827 19.4595
rtibia 24.7634
rfoot -18.212 -41.3627
rtoes 2.63426
lfemur -12.8037 -11.9526 -14.6893
ltibia 25.6974
lfoot -12.5289 -5.70402
ltoes -9.44569
46
root 0.539982 17.9743 -25.8772 1.67802 38.6895 -0.566829
lowerback 4.00062 7.40046 1.71325
upperback -0.349504 9.99314 1.50746
thorax -2.55799 4.96969 -0.00352166
lowerneck 6.76796 20.7651 12.9095
upperneck -4.12064 28.6221 -16.3394
head 1.88136 14.5915 -5.78365
rclavicle -8.74404e-014 4.77083e-015
rhumerus -41.0658 -18.9751 -66.4087
rradius 30.7001
rwrist -11.6642
rhand -19.8681 1.43693
rfingers 7.12502
rthumb 6.46713 -28.4443
lclavicle -8.74404e-014 4.77083e-015
lhumerus -27.5994 0.893501 86.8408
lradius 23.9239
lwrist 0.498104
lhand -10.5771 2.55448
lfingers 7.12502
lthumb 15.4279 31.9587
rfemur -0.380987 -14.4038 19.448
rtibia 24.7732
rfoot -18.2149 -41.3472
rtoes 2.63032
lfemur -12.8105 -11.9646 -14.6989
ltibia 25.6918
lfoot -12.5277 -5.69061
ltoes -9.44555
47
root 0.540264 17.9742 -25.8768 1.70568 38.7008 -0.53976
lowerback 4.00887 7.45802 1.72714
upperback -0.376766 10.0688 1.42769
thorax -2.57345 5.00613 -0.0980238
lowerneck 6.70764 20.694 13.1028
upperneck -4.01535 28.5443 -16.3359
head 1.93682 14.5456 -5.79394
rclavicle 1.52244e-013 2.38542e-015
rhumerus -41.1655 -19.1845 -66.4664
rradius 30.7352
rwrist -11.7112
rhand -19.766 1.37084
rfingers 7.12502
rthumb 6.56576 -28.5074
lclavicle 1.52244e-013 2.38542e-015
lhumerus -27.5718 0.625624 86.8457
lradius 23.9648
lwrist 0.5936
lhand -10.6034 2.61799
lfingers 7.12502
lthumb 15.4025 32.0242
rfemur -0.39568 -14.4342 19.4206
rtibia 24.7866
rfoot -18.2072 -41.3285
rtoes 2.61327
lfemur -12.8185 -11.978 -14.7233
ltibia 25.6809
lfoot -12.5234 -5.67998
ltoes -9.44596
48
root 0.540704 17.9741 -25.8767 1.7385 38.7144 -0.505084
lowerback 3.99207 7.46285 1.70364
upperback -0.37244 10.0728 1.40338
thorax -2.55921 5.00843 -0.107429
lowerneck 6.63918 20.6792 13.1571
upperneck -3.92797 28.5308 -16.3378
head 1.97903 14.5341 -5.78666
rclavicle 1.10499e-013 1.19271e-014
rhumerus -41.1263 -19.2025 -66.5675
rradius 30.735
rwrist -11.7636
rhand -19.6746 1.32853
rfingers 7.12502
rthumb 6.65394 -28.5469
lclavicle 1.10499e-013 1.19271e-014
lhumerus -27.54 0.582248 86.8565
lradius 24.0123
lwrist 0.660785
lhand -10.6444 2.66719
lfingers 7.12502
lthumb 15.363 32.0764
rfemur -0.411075 -14.4701 19.3847
rtibia 24.8026
rfoot -18.2031 -41.3046
rtoes 2.5946
lfemur -12.8249 -11.9921 -14.7557
ltibia 25.6663
lfoot -12.5174 -5.66898
ltoes -9.45397
